<?xml version="1.0" encoding="UTF-8"?>
<svg xmlns="http://www.w3.org/2000/svg"
     xmlns:xlink="http://www.w3.org/1999/xlink"
     version="1.2"
     width="141.42mm" height="100mm" viewBox="0 0 141.42 100"
     stroke="none"
     fill="#000000"
     stroke-width="0.3"
     font-size="3.88"
>
<defs>
  <marker id="arrow" markerWidth="15" markerHeight="7" refX="5" refY="3.5" orient="auto" markerUnits="strokeWidth">
    <path d="M0,0 L15,3.5 L0,7 z" stroke="context-stroke" fill="context-stroke"/>
  </marker>
</defs>
<g stroke-width="1.13" fill="#000000" fill-opacity="0.000" stroke="#D3D3D3" id="img-0143cd4c-1">
  <g transform="translate(33.86,17.43)">
    <path fill="none" d="M-20.54,-8.47 L20.54,8.47 " class="primitive"/>
  </g>
  <g transform="translate(91.67,28.01)">
    <path fill="none" d="M9.96,-6.86 L-9.96,6.86 " class="primitive"/>
  </g>
  <g transform="translate(116.27,31.68)">
    <path fill="none" d="M-12.24,-10.45 L12.24,10.45 " class="primitive"/>
  </g>
  <g transform="translate(79.41,23.4)">
    <path fill="none" d="M-21.75,2.9 L21.75,-2.9 " class="primitive"/>
  </g>
  <g transform="translate(68.19,31.14)">
    <path fill="none" d="M-10.7,-4.02 L10.7,4.02 " class="primitive"/>
  </g>
  <g transform="translate(71.15,42.36)">
    <path fill="none" d="M-14.23,-14.79 L14.23,14.79 " class="primitive"/>
  </g>
  <g transform="translate(83.42,46.97)">
    <path fill="none" d="M-2.64,-9.99 L2.64,9.99 " class="primitive"/>
  </g>
  <g transform="translate(86.31,74.93)">
    <path fill="none" d="M-0.07,15.49 L0.07,-15.49 " class="primitive"/>
  </g>
  <g transform="translate(108.01,50.64)">
    <path fill="none" d="M20.04,-6.99 L-20.04,6.99 " class="primitive"/>
  </g>
</g>
<g stroke-width="1.13" stroke="#D3D3D3" id="img-0143cd4c-2">
  <g transform="translate(51.21,24.59)">
    <path fill="none" d="M-0.58,-1.89 L3.19,1.31 -2.61,0.57 " class="primitive"/>
  </g>
  <g transform="translate(84.36,33.05)">
    <path fill="none" d="M2.73,0.11 L-2.64,1.82 -0.09,-1.93 " class="primitive"/>
  </g>
  <g transform="translate(126.15,40.12)">
    <path fill="none" d="M0.37,-1.91 L2.36,2.01 -2.73,-0.1 " class="primitive"/>
  </g>
  <g transform="translate(97.53,20.99)">
    <path fill="none" d="M-2.19,-1.16 L3.63,-0.48 -1.44,1.64 " class="primitive"/>
  </g>
  <g transform="translate(75.63,33.94)">
    <path fill="none" d="M-0.68,-1.87 L3.26,1.22 -2.58,0.65 " class="primitive"/>
  </g>
  <g transform="translate(83.31,55)">
    <path fill="none" d="M0.63,-1.88 L2.08,2.16 -2.7,-0.28 " class="primitive"/>
  </g>
  <g transform="translate(85.38,54.39)">
    <path fill="none" d="M1.64,-1.54 L0.68,2.57 -2.32,-1.02 " class="primitive"/>
  </g>
  <g transform="translate(86.37,62.05)">
    <path fill="none" d="M-2.02,1.3 L0.01,-2.61 2.01,1.31 " class="primitive"/>
  </g>
  <g transform="translate(91.28,56.48)">
    <path fill="none" d="M2.55,0.7 L-3.31,1.16 0.76,-1.86 " class="primitive"/>
  </g>
</g>
<g font-size="2" stroke="#000000" stroke-opacity="0.000" fill="#000000" id="img-0143cd4c-3">
  <g transform="translate(43.12,21.98)">
    <g class="primitive">
      <text text-anchor="middle" dy="0.35em">120.0</text>
    </g>
  </g>
  <g transform="translate(84.29,31.88)">
    <g class="primitive">
      <text text-anchor="middle" dy="0.35em">100.0</text>
    </g>
  </g>
  <g transform="translate(121.18,37.39)">
    <g class="primitive">
      <text text-anchor="middle" dy="0.35em">15.0</text>
    </g>
  </g>
  <g transform="translate(89.39,21.84)">
    <g class="primitive">
      <text text-anchor="middle" dy="0.35em">260.0</text>
    </g>
  </g>
  <g transform="translate(72.55,33.45)">
    <g class="primitive">
      <text text-anchor="middle" dy="0.35em">180.0</text>
    </g>
  </g>
  <g transform="translate(77,50.27)">
    <g class="primitive">
      <text text-anchor="middle" dy="0.35em">140.0</text>
    </g>
  </g>
  <g transform="translate(83.13,52.58)">
    <g class="primitive">
      <text text-anchor="middle" dy="0.35em">10.0</text>
    </g>
  </g>
  <g transform="translate(84.58,66.56)">
    <g class="primitive">
      <text text-anchor="middle" dy="0.35em">10.0</text>
    </g>
  </g>
  <g transform="translate(95.43,54.41)">
    <g class="primitive">
      <text text-anchor="middle" dy="0.35em">15.0</text>
    </g>
  </g>
</g>
<g stroke-width="0" stroke="#000000" stroke-opacity="0.000" fill="#40E0D0" id="img-0143cd4c-4">
  <g transform="translate(11.79,8.33)">
    <circle cx="0" cy="0" r="1.7" class="primitive"/>
  </g>
  <g transform="translate(102.9,20.27)">
    <circle cx="0" cy="0" r="1.7" class="primitive"/>
  </g>
  <g transform="translate(55.93,26.54)">
    <circle cx="0" cy="0" r="1.7" class="primitive"/>
  </g>
  <g transform="translate(80.45,35.75)">
    <circle cx="0" cy="0" r="1.7" class="primitive"/>
  </g>
  <g transform="translate(86.24,91.67)">
    <circle cx="0" cy="0" r="1.7" class="primitive"/>
  </g>
  <g transform="translate(129.64,43.09)">
    <circle cx="0" cy="0" r="1.7" class="primitive"/>
  </g>
  <g transform="translate(86.38,58.19)">
    <circle cx="0" cy="0" r="1.7" class="primitive"/>
  </g>
</g>
<g font-size="2" stroke="#000000" stroke-opacity="0.000" fill="#000000" id="img-0143cd4c-5">
  <g transform="translate(11.79,8.33)">
    <g class="primitive">
      <text text-anchor="middle" dy="0.35em">Crude Oil(2.0)</text>
    </g>
  </g>
  <g transform="translate(102.9,20.27)">
    <g class="primitive">
      <text text-anchor="middle" dy="0.35em">Circuit Board(8.667)</text>
    </g>
  </g>
  <g transform="translate(55.93,26.54)">
    <g class="primitive">
      <text text-anchor="middle" dy="0.35em">Plastic(4.0)</text>
    </g>
  </g>
  <g transform="translate(80.45,35.75)">
    <g class="primitive">
      <text text-anchor="middle" dy="0.35em">Computer(4.0)</text>
    </g>
  </g>
  <g transform="translate(86.24,91.67)">
    <g class="primitive">
      <text text-anchor="middle" dy="0.35em">A.I. Limiter(2.0)</text>
    </g>
  </g>
  <g transform="translate(129.64,43.09)">
    <g class="primitive">
      <text text-anchor="middle" dy="0.35em">High-Speed Connector(4.0)</text>
    </g>
  </g>
  <g transform="translate(86.38,58.19)">
    <g class="primitive">
      <text text-anchor="middle" dy="0.35em">Supercomputer(2.667)</text>
    </g>
  </g>
</g>
</svg>
