<?xml version="1.0" encoding="UTF-8"?>
<svg xmlns="http://www.w3.org/2000/svg"
     xmlns:xlink="http://www.w3.org/1999/xlink"
     version="1.2"
     width="141.42mm" height="100mm" viewBox="0 0 141.42 100"
     stroke="none"
     fill="#000000"
     stroke-width="0.3"
     font-size="3.88"
>
<defs>
  <marker id="arrow" markerWidth="15" markerHeight="7" refX="5" refY="3.5" orient="auto" markerUnits="strokeWidth">
    <path d="M0,0 L15,3.5 L0,7 z" stroke="context-stroke" fill="context-stroke"/>
  </marker>
</defs>
<g stroke-width="1.13" fill="#000000" fill-opacity="0.000" stroke="#D3D3D3" id="img-283c1421-1">
  <g transform="translate(100.64,89.63)">
    <path fill="none" d="M-14.81,-1.82 L14.81,1.82 " class="primitive"/>
  </g>
  <g transform="translate(106.86,78.09)">
    <path fill="none" d="M21.25,-8.88 L-21.25,8.88 " class="primitive"/>
  </g>
  <g transform="translate(61.54,79.48)">
    <path fill="none" d="M-20.98,-7.55 L20.98,7.55 " class="primitive"/>
  </g>
  <g transform="translate(112.87,62.05)">
    <path fill="none" d="M-15.22,-5.92 L15.22,5.92 " class="primitive"/>
  </g>
  <g transform="translate(106.65,73.59)">
    <path fill="none" d="M-9.87,-16.92 L9.87,16.92 " class="primitive"/>
  </g>
  <g transform="translate(28,23)">
    <path fill="none" d="M-15.13,-13.68 L15.13,13.68 " class="primitive"/>
  </g>
  <g transform="translate(41.6,54.51)">
    <path fill="none" d="M2.43,-15.6 L-2.43,15.6 " class="primitive"/>
  </g>
  <g transform="translate(70.16,46.59)">
    <path fill="none" d="M-24.35,-8.38 L24.35,8.38 " class="primitive"/>
  </g>
</g>
<g stroke-width="1.13" stroke="#D3D3D3" id="img-283c1421-2">
  <g transform="translate(111.82,91.01)">
    <path fill="none" d="M-1.47,-1.63 L3.64,0.45 -2.16,1.18 " class="primitive"/>
  </g>
  <g transform="translate(88.79,85.64)">
    <path fill="none" d="M2.61,0.56 L-3.18,1.33 0.56,-1.89 " class="primitive"/>
  </g>
  <g transform="translate(79.23,85.85)">
    <path fill="none" d="M-0.73,-1.86 L3.29,1.18 -2.56,0.68 " class="primitive"/>
  </g>
  <g transform="translate(124.85,66.71)">
    <path fill="none" d="M-0.65,-1.88 L3.23,1.26 -2.59,0.62 " class="primitive"/>
  </g>
  <g transform="translate(115.11,88.1)">
    <path fill="none" d="M1.16,-1.75 L1.41,2.41 -2.57,-0.66 " class="primitive"/>
  </g>
  <g transform="translate(40.86,34.63)">
    <path fill="none" d="M0.45,-1.91 L2.27,2.06 -2.72,-0.15 " class="primitive"/>
  </g>
  <g transform="translate(39.58,67.52)">
    <path fill="none" d="M2.21,-1.14 L-0.4,2.59 -1.8,-1.45 " class="primitive"/>
  </g>
  <g transform="translate(91.19,53.83)">
    <path fill="none" d="M-0.78,-1.85 L3.32,1.14 -2.54,0.71 " class="primitive"/>
  </g>
</g>
<g font-size="2" stroke="#000000" stroke-opacity="0.000" fill="#000000" id="img-283c1421-3">
  <g transform="translate(107.15,90.65)">
    <g class="primitive">
      <text text-anchor="middle" dy="0.35em">30.0</text>
    </g>
  </g>
  <g transform="translate(93.71,82.84)">
    <g class="primitive">
      <text text-anchor="middle" dy="0.35em">360.0</text>
    </g>
  </g>
  <g transform="translate(71.05,83.54)">
    <g class="primitive">
      <text text-anchor="middle" dy="0.35em">180.0</text>
    </g>
  </g>
  <g transform="translate(119.48,65.31)">
    <g class="primitive">
      <text text-anchor="middle" dy="0.35em">90.0</text>
    </g>
  </g>
  <g transform="translate(110.15,82.63)">
    <g class="primitive">
      <text text-anchor="middle" dy="0.35em">120.0</text>
    </g>
  </g>
  <g transform="translate(34.34,30.33)">
    <g class="primitive">
      <text text-anchor="middle" dy="0.35em">480.0</text>
    </g>
  </g>
  <g transform="translate(38.53,62.94)">
    <g class="primitive">
      <text text-anchor="middle" dy="0.35em">270.0</text>
    </g>
  </g>
  <g transform="translate(81.36,51.06)">
    <g class="primitive">
      <text text-anchor="middle" dy="0.35em">210.0</text>
    </g>
  </g>
</g>
<g stroke-width="0" stroke="#000000" stroke-opacity="0.000" fill="#40E0D0" id="img-283c1421-4">
  <g transform="translate(84.09,87.6)">
    <circle cx="0" cy="0" r="1.7" class="primitive"/>
  </g>
  <g transform="translate(129.64,68.57)">
    <circle cx="0" cy="0" r="1.7" class="primitive"/>
  </g>
  <g transform="translate(38.98,71.36)">
    <circle cx="0" cy="0" r="1.7" class="primitive"/>
  </g>
  <g transform="translate(96.1,55.52)">
    <circle cx="0" cy="0" r="1.7" class="primitive"/>
  </g>
  <g transform="translate(11.79,8.33)">
    <circle cx="0" cy="0" r="1.7" class="primitive"/>
  </g>
  <g transform="translate(44.22,37.67)">
    <circle cx="0" cy="0" r="1.7" class="primitive"/>
  </g>
  <g transform="translate(117.2,91.67)">
    <circle cx="0" cy="0" r="1.7" class="primitive"/>
  </g>
</g>
<g font-size="2" stroke="#000000" stroke-opacity="0.000" fill="#000000" id="img-283c1421-5">
  <g transform="translate(84.09,87.6)">
    <g class="primitive">
      <text text-anchor="middle" dy="0.35em">Reinforced Iron Plate(6.0)</text>
    </g>
  </g>
  <g transform="translate(129.64,68.57)">
    <g class="primitive">
      <text text-anchor="middle" dy="0.35em">Screw(9.0)</text>
    </g>
  </g>
  <g transform="translate(38.98,71.36)">
    <g class="primitive">
      <text text-anchor="middle" dy="0.35em">Iron Plate(9.0)</text>
    </g>
  </g>
  <g transform="translate(96.1,55.52)">
    <g class="primitive">
      <text text-anchor="middle" dy="0.35em">Iron Rod(14.0)</text>
    </g>
  </g>
  <g transform="translate(11.79,8.33)">
    <g class="primitive">
      <text text-anchor="middle" dy="0.35em">Iron Ore(8.0)</text>
    </g>
  </g>
  <g transform="translate(44.22,37.67)">
    <g class="primitive">
      <text text-anchor="middle" dy="0.35em">Iron Ingot(16.0)</text>
    </g>
  </g>
  <g transform="translate(117.2,91.67)">
    <g class="primitive">
      <text text-anchor="middle" dy="0.35em">Modular Frame(10.0)</text>
    </g>
  </g>
</g>
</svg>
