<?xml version="1.0" encoding="UTF-8"?>
<svg xmlns="http://www.w3.org/2000/svg"
     xmlns:xlink="http://www.w3.org/1999/xlink"
     version="1.2"
     width="141.42mm" height="100mm" viewBox="0 0 141.42 100"
     stroke="none"
     fill="#000000"
     stroke-width="0.3"
     font-size="3.88"
>
<defs>
  <marker id="arrow" markerWidth="15" markerHeight="7" refX="5" refY="3.5" orient="auto" markerUnits="strokeWidth">
    <path d="M0,0 L15,3.5 L0,7 z" stroke="context-stroke" fill="context-stroke"/>
  </marker>
</defs>
<g stroke-width="1.13" fill="#000000" fill-opacity="0.000" stroke="#D3D3D3" id="img-55796396-1">
  <g transform="translate(35.84,64.81)">
    <path fill="none" d="M15.27,-8.58 L-15.27,8.58 " class="primitive"/>
  </g>
  <g transform="translate(103.57,80.11)">
    <path fill="none" d="M21.98,-10.84 L-21.98,10.84 " class="primitive"/>
  </g>
  <g transform="translate(110.61,22.99)">
    <path fill="none" d="M17.83,-13.74 L-17.83,13.74 " class="primitive"/>
  </g>
  <g transform="translate(72.04,46.55)">
    <path fill="none" d="M18.06,-8.22 L-18.06,8.22 " class="primitive"/>
  </g>
  <g transform="translate(109.29,53.1)">
    <path fill="none" d="M-16.6,-14.48 L16.6,14.48 " class="primitive"/>
  </g>
  <g transform="translate(51.68,40.46)">
    <path fill="none" d="M38.14,-2.69 L-38.14,2.69 " class="primitive"/>
  </g>
  <g transform="translate(49.66,82.91)">
    <path fill="none" d="M-28.84,-8.28 L28.84,8.28 " class="primitive"/>
  </g>
  <g transform="translate(15.49,58.72)">
    <path fill="none" d="M-3.41,-14.21 L3.41,14.21 " class="primitive"/>
  </g>
</g>
<g stroke-width="1.13" stroke="#D3D3D3" id="img-55796396-2">
  <g transform="translate(23.46,71.76)">
    <path fill="none" d="M2.7,0.3 L-2.89,1.62 0.19,-1.93 " class="primitive"/>
  </g>
  <g transform="translate(84.61,89.46)">
    <path fill="none" d="M2.67,0.42 L-3.03,1.49 0.36,-1.92 " class="primitive"/>
  </g>
  <g transform="translate(95.27,34.8)">
    <path fill="none" d="M2.73,0 L-2.5,1.92 -0.24,-1.93 " class="primitive"/>
  </g>
  <g transform="translate(57.09,53.36)">
    <path fill="none" d="M2.64,0.49 L-3.1,1.41 0.46,-1.9 " class="primitive"/>
  </g>
  <g transform="translate(123.57,65.55)">
    <path fill="none" d="M0.4,-1.91 L2.32,2.03 -2.73,-0.12 " class="primitive"/>
  </g>
  <g transform="translate(17.22,42.9)">
    <path fill="none" d="M2.04,1.29 L-3.67,0.26 1.64,-1.55 " class="primitive"/>
  </g>
  <g transform="translate(75.08,90.21)">
    <path fill="none" d="M-0.95,-1.81 L3.42,0.98 -2.47,0.83 " class="primitive"/>
  </g>
  <g transform="translate(18.27,70.36)">
    <path fill="none" d="M1.68,-1.52 L0.62,2.57 -2.3,-1.05 " class="primitive"/>
  </g>
</g>
<g font-size="2" stroke="#000000" stroke-opacity="0.000" fill="#000000" id="img-55796396-3">
  <g transform="translate(25.75,69.49)">
    <g class="primitive">
      <text text-anchor="middle" dy="0.35em">115.818</text>
    </g>
  </g>
  <g transform="translate(90.09,85.89)">
    <g class="primitive">
      <text text-anchor="middle" dy="0.35em">138.981</text>
    </g>
  </g>
  <g transform="translate(99.33,30.32)">
    <g class="primitive">
      <text text-anchor="middle" dy="0.35em">480.0</text>
    </g>
  </g>
  <g transform="translate(60.5,51)">
    <g class="primitive">
      <text text-anchor="middle" dy="0.35em">173.727</text>
    </g>
  </g>
  <g transform="translate(116.38,60.83)">
    <g class="primitive">
      <text text-anchor="middle" dy="0.35em">138.981</text>
    </g>
  </g>
  <g transform="translate(29.97,41.87)">
    <g class="primitive">
      <text text-anchor="middle" dy="0.35em">167.292</text>
    </g>
  </g>
  <g transform="translate(63.13,87.29)">
    <g class="primitive">
      <text text-anchor="middle" dy="0.35em">34.745</text>
    </g>
  </g>
  <g transform="translate(15.57,66.44)">
    <g class="primitive">
      <text text-anchor="middle" dy="0.35em">301.126</text>
    </g>
  </g>
</g>
<g stroke-width="0" stroke="#000000" stroke-opacity="0.000" fill="#40E0D0" id="img-55796396-4">
  <g transform="translate(52.5,55.45)">
    <circle cx="0" cy="0" r="1.7" class="primitive"/>
  </g>
  <g transform="translate(127,68.55)">
    <circle cx="0" cy="0" r="1.7" class="primitive"/>
  </g>
  <g transform="translate(129.64,8.33)">
    <circle cx="0" cy="0" r="1.7" class="primitive"/>
  </g>
  <g transform="translate(91.58,37.65)">
    <circle cx="0" cy="0" r="1.7" class="primitive"/>
  </g>
  <g transform="translate(80.14,91.67)">
    <circle cx="0" cy="0" r="1.7" class="primitive"/>
  </g>
  <g transform="translate(19.19,74.16)">
    <circle cx="0" cy="0" r="1.7" class="primitive"/>
  </g>
  <g transform="translate(11.79,43.28)">
    <circle cx="0" cy="0" r="1.7" class="primitive"/>
  </g>
</g>
<g font-size="2" stroke="#000000" stroke-opacity="0.000" fill="#000000" id="img-55796396-5">
  <g transform="translate(52.5,55.45)">
    <g class="primitive">
      <text text-anchor="middle" dy="0.35em">Iron Plate(5.791)</text>
    </g>
  </g>
  <g transform="translate(127,68.55)">
    <g class="primitive">
      <text text-anchor="middle" dy="0.35em">Iron Rod(9.265)</text>
    </g>
  </g>
  <g transform="translate(129.64,8.33)">
    <g class="primitive">
      <text text-anchor="middle" dy="0.35em">Iron Ore(8.0)</text>
    </g>
  </g>
  <g transform="translate(91.58,37.65)">
    <g class="primitive">
      <text text-anchor="middle" dy="0.35em">Iron Ingot(16.0)</text>
    </g>
  </g>
  <g transform="translate(80.14,91.67)">
    <g class="primitive">
      <text text-anchor="middle" dy="0.35em">Modular Frame(11.582)</text>
    </g>
  </g>
  <g transform="translate(19.19,74.16)">
    <g class="primitive">
      <text text-anchor="middle" dy="0.35em">Alternate: Stitched Iron Plate(6.177)</text>
    </g>
  </g>
  <g transform="translate(11.79,43.28)">
    <g class="primitive">
      <text text-anchor="middle" dy="0.35em">Alternate: Iron Wire(13.383)</text>
    </g>
  </g>
</g>
</svg>
